<?xml version="1.0" encoding="utf-8"?>
<!-- Generator: Adobe Illustrator 21.0.0, SVG Export Plug-In . SVG Version: 6.00 Build 0)  -->
<svg version="1.1" xmlns="http://www.w3.org/2000/svg" xmlns:xlink="http://www.w3.org/1999/xlink" x="0px" y="0px"
	 viewBox="0 0 512.4 467.6" style="enable-background:new 0 0 512.4 467.6;" xml:space="preserve">
<style type="text/css">
	.st0{display:none;}
	.st1{display:inline;fill:#FFFFFF;}
	.st2{fill:#FFFFFF;}
</style>
<g id="圖層_1" class="st0">
	<path class="st1" d="M157.1,28.8c0,0,251.2-23.5,294.7,83.5s81.2,205.3,18.8,272.9s-352.4,69.4-390,42.4
		c-31-22.3-102.4-89.4-61.8-203.5S78.2,32.9,157.1,28.8z"/>
</g>
<g id="圖層_2">
	<path class="st2" d="M84,43.6c17.4-8.1,36.8-10.8,55.8-8.3c46.9,6.2,158.8,19.9,243.2,21.7c109.4,2.4,122.4,98.8,110.6,221.2
		S351.8,462.9,252.4,446.5S9,364,16.5,292.4C22.9,230.5-20.8,92.5,84,43.6z"/>
</g>
</svg>
