<?xml version="1.0" encoding="utf-8"?>
<!-- Generator: Adobe Illustrator 21.0.0, SVG Export Plug-In . SVG Version: 6.00 Build 0)  -->
<svg version="1.1" xmlns="http://www.w3.org/2000/svg" xmlns:xlink="http://www.w3.org/1999/xlink" x="0px" y="0px"
	 viewBox="0 0 356 293" style="enable-background:new 0 0 356 293;" xml:space="preserve">
<style type="text/css">
	.st0{display:none;}
	.st1{display:inline;fill:#353508;stroke:#231815;stroke-miterlimit:10;}
	.st2{fill:#FFFFFF;}
</style>
<g id="圖層_1" class="st0">
	<ellipse class="st1" cx="180.5" cy="145.1" rx="264.6" ry="257"/>
</g>
<g id="圖層_2">
	<g>
		<g>
			<path class="st2" d="M57.7,40.7c48.6-0.2,97.2,0.3,145.8,1.4c24.6,0.6,49.3,1.3,73.9,2.2c6,0.2,12,0.4,18,0.7
				c2.7,0.1,5.3,0.2,8,0.3c2.5,0.1,8-0.8,10,0.4c4.3,2.6-0.1-0.7,1,0.6c0.6,0.7,0.2,3.8,0.3,4.8c0.1,2.9,0.2,5.7,0.2,8.6
				c0.1,6.1-0.1,12.1-0.4,18.2c-0.2,2.9-0.4,5.7-0.6,8.6c-0.2,2.2,0.1,5.3-0.9,7.3c-1.4,2.9-3.5,2.6-6.4,2.6c-3.6,0-7.3,0-10.9,0
				c-11.9,0-23.9-0.1-35.8-0.1c-24.2-0.1-48.4-0.1-72.7,0.4c-12.3,0.2-24.5,0.6-36.8,1.1c-5.6,0.2-11.3,0.5-16.9,0.8
				c-4.5,0.3-9.8-0.1-13.6,2.8c-3.7,2.8-4.3,7.6-5.1,11.9c-1,5.4-1.8,10.8-2.5,16.3c-1.5,11.7-2.5,23.5-3,35.3
				c-1.2,26.3-0.6,52.7-1.2,79c-0.1,3.5-0.2,7.1-0.3,10.6c-0.1,2.8-1,6.9-0.4,9.6c0,0.3,0,0.6-0.1,1c-0.3,1.8,0.3,1.4,1.6-1
				c-0.1-0.2-5.5-0.3-5.8-0.3c-3.2-0.2-6.4-0.3-9.7-0.5c-13.5-0.7-27-1.4-40.6-2.1c1.4,1.4,2.8,2.8,4.1,4.1
				c-2.2-38.2-3.4-76.4-3.5-114.6c-0.1-19.1,0.1-38.2,0.6-57.4c0.2-9.2,0.5-18.5,0.9-27.7c0.2-4.6,0.4-9.2,0.6-13.8
				c0.1-2.1-0.7-10,2.3-10.6c5.2-1,3-9-2.2-8c-6.9,1.3-7.9,8.8-8.2,14.6c-0.5,10.5-0.9,21.1-1.2,31.6c-0.6,20.4-1,40.9-1,61.3
				c-0.1,41.5,1.1,83.1,3.5,124.5c0.1,2.3,1.8,4,4.1,4.1c12.6,0.7,25.1,1.3,37.7,2c6,0.3,12.3,1.1,18.3,1c4-0.1,6.2-2.3,6.6-6.3
				c2.4-24.2,1-49,1.3-73.2c0.3-25.2,1.2-50.5,5.6-75.4c0.5-2.6,0.5-6.2,2.1-8.4c1.7-2.3,5.1-1.9,7.9-2c6.6-0.4,13.3-0.7,19.9-1
				c12.6-0.5,25.2-0.9,37.8-1.1c25.9-0.5,51.8-0.4,77.6-0.3c12.6,0,25.2,0.1,37.8,0.1c4,0,8.2,0.1,11.5-2.4
				c3.8-2.9,4.2-7.5,4.7-11.9c1.3-12.3,1.7-24.8,1.3-37.2c-0.1-4,0.5-9.7-2.5-13c-3.1-3.4-9-2.7-13.1-2.8c-25.3-1.1-50.6-2-75.9-2.7
				c-57.9-1.6-115.9-2.3-173.8-2.1C52.4,32.5,52.4,40.7,57.7,40.7L57.7,40.7z"/>
		</g>
	</g>
	<g>
		<g>
			<path class="st2" d="M96.5,35c-16.4,16-32.8,32-49,48.2c-3.8,3.8,2.1,9.6,5.9,5.9c16.3-16.2,32.6-32.2,49-48.2
				C106.2,37.2,100.4,31.3,96.5,35L96.5,35z"/>
		</g>
	</g>
	<g>
		<g>
			<path class="st2" d="M141.4,35.2c-30.8,31.3-61.8,62.3-93.2,93c-3.8,3.7,2,9.6,5.9,5.9c31.4-30.7,62.4-61.7,93.2-93
				C151,37.3,145.2,31.4,141.4,35.2L141.4,35.2z"/>
		</g>
	</g>
	<g>
		<g>
			<path class="st2" d="M187.6,36.3c-17.8,21-36,41.7-55,61.7c-3.7,3.9,2.2,9.7,5.9,5.9c19-19.9,37.2-40.6,55-61.7
				C196.8,38.1,191,32.2,187.6,36.3L187.6,36.3z"/>
		</g>
	</g>
	<g>
		<g>
			<path class="st2" d="M112.3,120.3c-21,19.1-43.2,36.7-65.3,54.3c-4.2,3.3,1.7,9.1,5.9,5.9c22.1-17.7,44.4-35.3,65.3-54.3
				C122.1,122.5,116.2,116.7,112.3,120.3L112.3,120.3z"/>
		</g>
	</g>
	<g>
		<g>
			<path class="st2" d="M231.4,40.3c-12.7,18.7-26,37.1-39.8,55c-3.2,4.2,3.9,8.3,7.1,4.2c13.8-17.9,27.1-36.3,39.8-55
				C241.6,40.1,234.4,35.9,231.4,40.3L231.4,40.3z"/>
		</g>
	</g>
	<g>
		<g>
			<path class="st2" d="M109.9,176.2c-17.7,16.9-37.5,31.5-58.9,43.4c-4.7,2.6-0.5,9.7,4.2,7.1c22-12.3,42.3-27.3,60.6-44.7
				C119.6,178.4,113.7,172.5,109.9,176.2L109.9,176.2z"/>
		</g>
	</g>
	<g>
		<g>
			<path class="st2" d="M281.5,41.4c-11.9,18.7-24.6,36.8-38.2,54.2c-3.2,4.1,2.6,10,5.9,5.9c14.1-18,27.3-36.6,39.5-55.9
				C291.6,41.1,284.4,37,281.5,41.4L281.5,41.4z"/>
		</g>
	</g>
	<g>
		<g>
			<path class="st2" d="M109.5,217.5c-15,16.2-32.1,30.2-49.2,44.1c-4.1,3.4,1.7,9.2,5.9,5.9c17.1-13.9,34.2-27.9,49.2-44.1
				C119,219.4,113.1,213.6,109.5,217.5L109.5,217.5z"/>
		</g>
	</g>
	<g>
		<g>
			<path class="st2" d="M315.1,47.4c-9,17-19.3,33.3-30.7,48.8c-3.2,4.3,4,8.4,7.1,4.2c11.4-15.5,21.7-31.8,30.7-48.8
				C324.8,46.9,317.6,42.7,315.1,47.4L315.1,47.4z"/>
		</g>
	</g>
	<g>
		<g>
			<path class="st2" d="M64,87.5c1,1.7,1.1,3,1,4.9c-0.3,3.7,4.6,5.2,7.1,2.9c9-8.5,18-17,27-25.6c3.4-3.2-1.1-9.1-5-6.5
				c-9.6,6.4-19.3,12.8-30,17.3c1.9,1.9,3.8,3.8,5.7,5.7c4.3-7.4,9.9-13.7,16.8-18.7c-1.7-2.2-3.3-4.3-5-6.5
				c-8.9,9.3-18.6,17.5-29.3,24.6c-1.7,1.1-2.2,2.7-1.9,4.7c1.5,10.2,1.3,20.6-0.4,30.8c-0.7,4.3,5.2,7.6,7.6,3.2
				c7.9-14.8,19-27.4,30.9-39.3C101,72.4,114.1,60,127,47.6c2.2-2.1,1.2-6.2-1.8-6.9c-8.2-1.9-17.5-3.7-25.9-2.8
				C92,38.6,87.7,43,84.1,49c-9.1,15-19.2,28.8-31.4,41.3c-2.2,2.2-1.2,6.1,1.8,6.9c6.2,1.7,12.4-1.8,14-8c1.1-4.4-5.3-7.4-7.6-3.2
				c-2.5,4.6-3.9,9.3-4.5,14.6c-0.6,4.9,6.6,5.2,8.1,1.1c4.4-12,15.6-19.5,25.5-26.8c11-8.2,20.6-17.3,28.3-28.8
				c2.6-3.9-3.3-8.5-6.5-5c-5.2,5.8-9.8,12.1-13.4,19.1C95.2,66.3,93,73.3,88,78.3c-4.8,4.7-10.7,7.7-14.8,13.1
				c-3.5,4.6-6.1,12-12,14c1.1,2.5,2.1,5,3.2,7.6c6.7-3.7,11.9-9.2,16.8-14.9c5.8-6.7,11.6-12.5,18.7-17.7
				c6.7-4.9,12.9-10.3,18-16.9c3.9-5,8.5-16.5,16-16.1c3.7,0.2,5.3-4.6,2.9-7.1c-7.3-7.4-17.7-4.7-25.1,1
				C101.5,49.1,92.2,58.4,82.5,67c2.3,1.3,4.6,2.7,6.9,4c1.2-5.3,5.5-8.6,9.3-12.2c3.8-3.6,6.9-7.2,8.7-12.1c0.5-1.3-0.1-3.1-1.1-4
				c-10.1-9.6-19.8,13-23.6,19.2C75.4,74,65.2,83,51.3,87.1c-5.1,1.5-2.9,9.5,2.2,8c10.4-3.1,20-8.7,27.4-16.7c3.9-4.2,7-9,10-13.9
				c0.9-1.5,10.1-15.6,9.7-16c-0.4-1.3-0.7-2.7-1.1-4c-3.7,9.8-15.6,13.4-18,24.3c-0.9,4.1,3.8,6.8,6.9,4
				c7.2-6.4,14.4-12.8,21.6-19.2c4.9-4.4,14.3-14.4,21-7.5c1-2.4,2-4.7,2.9-7.1c-7.5-0.4-12.5,5-16.5,10.6
				c-5.5,7.9-10.9,15.2-18.6,21.1c-7.1,5.5-14,10.4-19.9,17.2c-5.7,6.5-11,13.5-18.7,17.8c-4,2.2-1.3,9.1,3.2,7.6
				c6.3-2.1,9.8-6.9,13.2-12.3c4.1-6.4,9.2-10.1,14.9-14.8c5.7-4.7,8.8-10.9,11.9-17.5c3.7-8,8.3-15.2,14.2-21.7
				c-2.2-1.7-4.3-3.3-6.5-5c-8.4,12.5-19.4,21.3-31.3,30.2C70,79.5,60.8,87.6,56.5,99.5c2.7,0.4,5.4,0.7,8.1,1.1
				c0.4-3.7,1.6-7.1,3.4-10.4c-2.5-1.1-5-2.1-7.6-3.2c-0.5,1.9-1.9,2.8-3.8,2.2c0.6,2.3,1.2,4.6,1.8,6.9
				C68.7,85.7,77.9,74.3,85.8,62c3.2-5,6.5-14.4,12.9-15.8c7.5-1.6,16.9,0.7,24.3,2.4c-0.6-2.3-1.2-4.6-1.8-6.9
				c-13.3,12.9-26.8,25.6-39.9,38.7c-11.8,12-23,24.8-30.9,39.7c2.5,1.1,5,2.1,7.6,3.2c2-11.8,2.1-23.4,0.4-35.2
				c-0.6,1.6-1.3,3.1-1.9,4.7C67.7,85.3,78,76.6,87.4,66.9c3.1-3.3-1.1-9.3-5-6.5c-8.1,5.8-14.8,13-19.8,21.7
				c-2.3,3.9,2.1,7.2,5.7,5.7c10.7-4.5,20.4-10.9,30-17.3c-1.7-2.2-3.3-4.3-5-6.5c-9,8.5-18,17-27,25.6c2.4,1,4.7,2,7.1,2.9
				c0.2-3.3-0.5-6.1-2.1-9.1C68.6,78.7,61.4,82.9,64,87.5L64,87.5z"/>
		</g>
	</g>
	<g>
		<g>
			<path class="st2" d="M190.9,40.4c-14.4,20.6-29.3,40.9-48.5,57.3c2,2,3.9,3.9,5.9,5.9c6.9-8.9,14.9-16.6,24.2-22.9
				c4.4-3,0.2-10.2-4.2-7.1c-9.9,6.7-18.6,14.8-25.9,24.2c-3.2,4.2,1.7,9.4,5.9,5.9c19.7-16.8,35.1-37.8,49.8-59
				C201.1,40.2,193.9,36,190.9,40.4L190.9,40.4z"/>
		</g>
	</g>
	<g>
		<g>
			<path class="st2" d="M162.1,82c-1,2.2-2.1,4.3-3.1,6.5c-0.5,1.1-1,2.2-1.6,3.2c-1,1.2-0.8,1.5,0.6,1c0.6,0.8,1.3,1.6,1.9,2.5
				c-0.1-0.3-0.2-0.6-0.3-0.8c-1.3,1.7-2.7,3.5-4,5.2c12.5,0.2,24.9-1,37.1-3.4c5.3-1.1,3-8.8-2.2-8c-4.7,0.8-8.3,1.7-8,7.4
				c0.2,3.3,3.3,5,6.2,3.6c4.2-2,7-5.5,9.4-9.5c3.1-5.2,5.9-9.6,10.4-13.8c9.1-8.5,15.8-18.3,19.9-30.1c-1,1-1.9,1.9-2.9,2.9
				c1-0.3,2-0.6,3-0.9c3.2-1,3.7-4.5,1.8-6.9c-8.3-10.7-21.6-3-32.2-2.6c-5.3,0.2-5.3,8.5,0,8.3c7.7-0.3,20.5-7.4,26.3,0.2
				c0.6-2.3,1.2-4.6,1.8-6.9c-2.6,0.8-4.6,1.2-5.9,3.8c-1.3,2.7-2.1,5.6-3.5,8.3c-3.1,5.9-7,11.2-11.8,15.9
				c-4.1,4-8.2,7.7-11.1,12.6c-2.6,4.4-4.5,9.4-9.4,11.7c2.1,1.2,4.2,2.4,6.2,3.6c0-0.2,0-0.4-0.1-0.6c-0.8,0.6-1.6,1.3-2.5,1.9
				c1.5-0.3,3-0.5,4.5-0.8c-0.7-2.7-1.5-5.3-2.2-8c-11.5,2.3-23.2,3.3-34.9,3.1c-2.5,0-4.9,2.7-4,5.2c1.4,3.8,5.2,5.8,9.1,3.9
				c4.5-2.3,6.5-10,8.6-14.2C171.5,81.4,164.4,77.2,162.1,82L162.1,82z"/>
		</g>
	</g>
	<g>
		<g>
			<path class="st2" d="M194.6,43c-7.4,11.9-16.9,22.2-25.9,32.9c-2.2,2.6-4.4,5.3-6.5,8c-1.5,1.9-3.6,4-4,6.4
				c-0.9,5,4.1,8.3,8.6,7.2c5-1.2,9.5-6.8,12.8-10.4c4-4.4,7.7-9.1,11.4-13.7c3.7-4.6,7.4-9.2,11.5-13.5c2-2.1,4.1-4.1,6.4-5.9
				c1.2-1,2.5-1.9,3.8-2.8c0.6-0.4,1.2-0.8,1.9-1.2c1.6-0.5,1.7-0.9,0.3-1.1c-0.4-1-0.8-2-1.2-2.9c0,2.3-6.5,6.2-8.2,7.6
				c-3.4,2.9-6.2,6.1-9,9.6c-1.9,2.5-15.2,22-17.2,20.9c-0.7,2.6-1.4,5.1-2.1,7.7c10,0.4,17.2-6.2,22.8-13.8
				c3.6-4.8,6.9-9.9,10.3-14.8c2.6-3.7,7.1-8.3,6.3-13.2c-1.5-9.4-13.5-8.9-19.1-3.8c-3.6,3.3-6,7.9-8.6,11.9
				c-3.5,5.5-7.1,11.1-10.6,16.6c-2.9,4.5,4.3,8.7,7.1,4.2c3.9-6.1,7.8-12.2,11.7-18.3c1.6-2.5,3.1-5.4,5.1-7.5
				c1.1-1.1,4.5-4.4,5.3-0.5c0.2,0.7-2.4,3.4-2.8,4c-3.8,5.5-7.5,11.1-11.4,16.5c-4,5.5-8.9,10.7-16.2,10.4
				c-4.1-0.2-5.6,5.7-2.1,7.7c5.5,3.1,10.2-0.1,13.6-4.5c5.1-6.5,9.9-13.3,15.1-19.7c4.5-5.6,10.7-9.2,15.3-14.6
				c3.3-3.8,4.2-11-2.6-11.5c-5.4-0.4-10.9,4.9-14.7,8.1c-5,4.3-9.3,9.3-13.5,14.4c-4.2,5.2-8.2,10.5-12.7,15.6
				c-2,2.2-4,4.4-6.1,6.4c-0.6,0.6-3.9,2.8-4.1,3.6c0.2,0.4,0.4,0.8,0.6,1.2c0.2,1.5,0.6,1.6,1.1,0.6c0.9-0.5,1.8-2.4,2.5-3.3
				c10.7-13.6,23-25.8,32.1-40.6C204.5,42.6,197.4,38.5,194.6,43L194.6,43z"/>
		</g>
	</g>
	<g>
		<g>
			<path class="st2" d="M103.9,138c-14.7,10.8-29.4,21.6-44.1,32.4c-2.4,1.8-6.3,3.8-7.8,6.5c-1.6,2.9-1,6.9-1.1,10
				c-0.1,8.8-0.3,17.6-0.4,26.4c0,3,3.6,5.3,6.2,3.6c17.6-11.8,35.1-23.7,52.7-35.5c4.4-3,0.3-10.1-4.2-7.1
				c-17.6,11.8-35.1,23.7-52.7,35.5c2.1,1.2,4.2,2.4,6.2,3.6c0.1-7.5,0.2-15.1,0.4-22.6c0-2-0.8-8,0-9.7c0.6-1.3,3.5-2.6,4.8-3.5
				c1.8-1.3,3.7-2.7,5.5-4c12.9-9.4,25.7-18.9,38.6-28.3C112.3,142.1,108.2,134.9,103.9,138L103.9,138z"/>
		</g>
	</g>
	<g>
		<g>
			<path class="st2" d="M108.6,142.1c3.4-1.5,5-4.6,5.1-8.2c-2.8,0-5.5,0-8.3,0c-0.1,7.5-0.1,15-0.2,22.5c0,6.3,1,14.1-4.7,18.3
				c-5.8,4.2-12.5,7.5-18.7,11.2c-3.1,1.9-6.2,3.7-9.4,5.6c-3.3,2-6.7,4.6-10.2,6.1c-2,0.8-1.2,1.2-1.5-0.8
				c-0.2-1.2,0.2-2.5,0.3-3.7c0.2-2.7-0.1-6.6,1-9.1c1.3-2.9,5.2-4.8,7.7-6.5c2.6-1.7,5.2-3.3,7.9-4.8c4.8-2.9,9.7-5.7,14.3-9
				c2.3-1.7,4.6-3.5,6.7-5.4c1.1-1,4.1-5.3,5.1-5.4c-1.3-0.4-2.7-0.7-4-1.1c3.8,3.4,1,10.1-1.4,13.4c-3.2,4.2-7.7,7.4-12,10.5
				c-3.9,2.9-7.9,5.7-12.2,8c-2.4,1.4-11.4,6.4-12.8,5.4c0.6,0.8,1.3,1.6,1.9,2.5c-1.1-3.2,3.6-8,5.6-9.8c2.9-2.6,6.3-4.5,9.8-6.2
				c3.7-1.8,7.4-3.4,11-5.4c1.9-1.1,3.7-2.2,5.4-3.5c1-0.8,2.9-3.2,4.3-3.1c-1-0.4-2-0.8-2.9-1.2c0.2,0.2,0.4,0.5,0.6,0.7
				c-0.4-1-0.8-2-1.2-2.9c0,0.7-13.3,5.4-15.1,6.3c-4.8,2.3-9.3,5.2-13.6,8.5c-4.9,3.8-18.9,13.6-12.7,21c6.7,8,16.3-4.4,20.5-8.9
				c3.5-3.8,7-7.7,11-11.1c1.5-1.3,4.1-4,6.1-4.3c1.1-0.2,1.5,0.5,2.6,1.4c2,1.8,2.6,1.5,5.2,2.2c-5.2-1.2-7.4,6.8-2.2,8
				c7.3,1.7,11.1-6.4,7-12c-2-2.7-5.6-5.7-8.6-7.4c-3.1-1.7-6.1-0.6-8.9,1.1c-7.2,4.3-12.9,10.8-18.6,16.9c-1.2,1.3-2.5,2.7-3.8,4
				c-0.6,0.6-1.7,1.4-2.2,2.2c0,0-2.5,3.7-1.3,3.9c0.5,0.1,4.2-4.5,4.8-5.1c1.8-1.7,3.7-3.4,5.7-4.9c7.2-5.6,15.2-9,23.5-12.5
				c2.9-1.2,6.8-2.8,8.3-5.9c1.3-2.8,0.3-6.4-2.6-7.6c-2.9-1.2-5.8,0.2-8,2c-3.8,3-7.5,5.5-11.8,7.6c-7.2,3.5-14.7,6.6-20.2,12.7
				c-3.5,3.8-9.2,12.7-4.7,17.6c4.8,5.2,15.8-1.5,20.5-4c7.8-4.1,15.1-9.5,21.9-15.2c6.1-5.1,11.3-11.9,11-20.3
				c-0.2-5.2-4.4-15.3-11-10.2c-3,2.4-5.2,5.9-8.2,8.3c-3.2,2.7-6.8,5-10.4,7.2c-7.1,4.4-14.7,8.2-21.2,13.5
				c-6.3,5.1-6.2,13.7-6.4,21.1c-0.2,8.2,5.6,12.9,13.3,8.9c10.4-5.4,20.4-12.1,30.4-18.1c8.2-4.9,15.5-8.8,16.8-19.1
				c1.4-11.1,0.5-22.8,0.6-34c0-5.3-8.1-5.3-8.3,0c-0.3,0.3-0.7,0.7-1,1C99.6,137.1,103.8,144.3,108.6,142.1L108.6,142.1z"/>
		</g>
	</g>
	<g>
		<g>
			<path class="st2" d="M104.2,234c-1.4,3.1-3.8,5.2-5.8,7.8c-1.8,2.3-3.3,4.8-4.8,7.2c-1.5,2.3-3,4.9-5.4,6.4
				c-3.5,2.2-8,1.5-11.9,1.1c0.4,2.7,0.7,5.4,1.1,8.1c7-1.2,13.4-4.4,18.7-9.1c6-5.4,9.4-12.9,14.1-19.5c-2.4-1.4-4.8-2.8-7.1-4.2
				c-2.3,5.3-7.5,9.7-11.6,13.7c-4.2,4.2-8.7,8.1-13.3,11.9c-1.8,1.5-1.3,4.3,0,5.9c5.8,6.9,15.5,4.7,23,2.5
				c3.2-0.9,6.4-1.9,7.6-5.3c1.2-3.8,0.5-8.8,0.5-12.7c0-4.2-5.6-5.5-7.7-2.1c-2.2,3.6-4.4,7.3-6.4,11.1c-2.5,4.7,4.6,8.9,7.1,4.2
				c2-3.8,4.2-7.4,6.4-11.1c-2.6-0.7-5.1-1.4-7.7-2.1c0,2.2,0,4.4-0.1,6.7c0,0.9,0.3,2.5,0,3.3c0.2-0.2,0.5-0.5,0.7-0.7
				c-0.9,0.3-1.7,0.6-2.6,0.8c-4.5,1.3-11.4,3.9-15-0.3c0,2,0,3.9,0,5.9c5-4.2,9.9-8.5,14.5-13.2c4.1-4.2,9.2-8.7,11.6-14.1
				c2.1-4.9-4-8.6-7.1-4.2c-3.9,5.5-6.8,12-11.7,16.7c-4.5,4.4-10,7-16.2,8c-4.9,0.8-3.2,7.7,1.1,8.1c8.6,0.9,16-0.3,21.6-7.4
				c2.2-2.8,3.8-5.9,5.8-8.8c2.5-3.6,5.9-6.4,7.8-10.4C113.6,233.4,106.5,229.2,104.2,234L104.2,234z"/>
		</g>
	</g>
	<g>
		<g>
			<path class="st2" d="M284,46c-6.4,6.8-12.3,14.1-17.5,21.9c-2.6,3.9-5,7.8-7.2,11.9c-2.1,3.8-3.7,8.9-7.4,11.5
				c-2.9,2.1-2.6,6.4,1,7.6c6.9,2.2,13.9,1.7,20.9,0.3c6.5-1.3,13.1-2.5,16.9-8.4c3.7-5.7,5.8-12.3,9.6-18c4-5.9,9.7-10.2,13.7-15.9
				c3.4-4.8,2.6-11-2.5-14.3c-5-3.2-12.6-2.8-18.2-1.6c-14.5,3-16,18.9-23.1,29.5c-2,3-4.3,5.8-6.8,8.5c-2.1,2.2-4.3,4.5-4.7,7.7
				c-0.6,4.9,3.5,8.7,8.1,9.5c5.9,1,10.2-3.1,13.4-7.5c4.4-6.2,8.7-12.1,13.9-17.7c4.4-4.8,9.9-10.1,12.3-16.4
				c2.1-5.7-2-9.8-7.7-9.7c-15.5,0.1-16.4,19-24.5,27.8c-4.8,5.2-10.9,10.3-9.4,18.3c1.2,6.3,7.7,9.8,12.7,5
				c5.7-5.5,11.1-12.2,15.3-19c1.9-3.1,3.6-6.4,4.8-9.8c0.7-1.9,2.7-13.4,6.4-11.1c1.1-2.5,2.1-5,3.2-7.6
				c-17.2-4.7-23.9,16.4-29.2,28.3c-2.2,4.8,5,9,7.1,4.2c3.3-7.3,8.7-27.5,19.9-24.5c4.6,1.2,7.2-5.1,3.2-7.6
				c-3.7-2.3-8-1.8-11.4,0.7c-4.1,3.1-5,8.3-6.4,12.9c-1.7,5.5-4.7,10.4-8.1,15c-1.8,2.4-3.7,4.7-5.7,6.9c-1.6,1.9-3.8,5.1-6.1,6.2
				c1.1-0.1,2.1-0.3,3.2-0.4c-4-0.7,2.8-8.3,3.9-9.4c2.8-2.8,5.3-5.6,7.2-9.1c3.1-5.9,4.7-15,11.4-18c0.3-0.1,2.1-1,2.4-0.7
				c-0.9-0.8-1,0.5-1.5,1.2c-1.2,1.5-2.1,3.1-3.3,4.5c-2.5,3-5.3,5.8-7.9,8.8c-2.6,2.9-5,5.9-7.3,9c-2.3,3-4.1,6.6-6.7,9.3
				c-0.8,0.8-2.2,2.5-3.5,2.3c-2.4-0.3-0.1-2.3,0.8-3.2c2.6-2.8,4.9-5.7,7.1-8.7c4.5-6.4,6.9-13.4,10.3-20.3
				c3.2-6.5,12-9.1,18.9-6.9c5,1.6-1.7,6.7-3.5,8.7c-2.7,2.8-5.2,5.9-7.4,9c-2.4,3.3-4.5,6.8-6.4,10.5c-1.6,3.2-2.7,7.7-5.2,10.3
				c-2.8,2.9-9.3,3.5-13.1,4.1c-5,0.9-9.9,0.9-14.8-0.6c0.3,2.5,0.7,5,1,7.6c7.3-5.2,10.2-14.7,14.7-22c5.5-8.9,11.9-17,19-24.6
				C293.5,48,287.7,42.1,284,46L284,46z"/>
		</g>
	</g>
	<g>
		<g>
			<path class="st2" d="M297.4,65.2c0.9,1.9-4.8,7.9-5.9,9.4c-2.4,3.3-4.8,6.5-7.1,9.8c-3.1,4.3,4,8.4,7.1,4.2
				c3.6-4.9,7.2-9.7,10.7-14.6c3-4.1,4.5-8.1,2.3-12.9C302.3,56.2,295.2,60.4,297.4,65.2L297.4,65.2z"/>
		</g>
	</g>
</g>
</svg>
