<svg id="圖層_2" data-name="圖層 2" xmlns="http://www.w3.org/2000/svg" viewBox="0 0 737.61 247.03"><defs><style>.cls-1,.cls-3{fill:none;stroke-linecap:round;}.cls-1,.cls-3,.cls-4{stroke:#fff;stroke-miterlimit:10;}.cls-1{stroke-width:8.7px;}.cls-2,.cls-4{fill:#fff;}.cls-3{stroke-width:7.74px;}.cls-4{stroke-width:0.48px;}</style></defs><title>未命名-4</title><path class="cls-1" d="M101.39,216c53.38,0,53.38,22.24,106.76,22.24S261.53,216,314.91,216s53.38,22.24,106.77,22.24S475.06,216,528.45,216s53.39,22.24,106.77,22.24" transform="translate(-23.45 -18.61)"/><circle class="cls-2" cx="60.28" cy="66.68" r="31.69"/><line class="cls-3" x1="99.12" y1="108.04" x2="89.68" y2="99.15"/><line class="cls-3" x1="51.96" y1="120.82" x2="55.29" y2="108.29"/><line class="cls-3" x1="24.36" y1="92.02" x2="13.91" y2="99.69"/><line class="cls-3" x1="62.13" y1="22.72" x2="62.49" y2="9.76"/><line class="cls-3" x1="28.77" y1="32.68" x2="19.46" y2="23.65"/><line class="cls-3" x1="16.63" y1="61.85" x2="3.87" y2="64.1"/><line class="cls-3" x1="95.74" y1="39.5" x2="104.95" y2="30.37"/><line class="cls-3" x1="105.84" y1="73.45" x2="118.7" y2="75.07"/><path class="cls-3" d="M723.83,22.47S655.66,133.44,620.12,95" transform="translate(-23.45 -18.61)"/><path class="cls-3" d="M757.19,67.44S689,178.4,653.48,140" transform="translate(-23.45 -18.61)"/><circle class="cls-4" cx="102.98" cy="222.13" r="2.66"/><circle class="cls-4" cx="128.6" cy="244.13" r="2.66"/><circle class="cls-4" cx="162.21" cy="233.25" r="2.66"/><circle class="cls-4" cx="123.77" cy="225.99" r="2.66"/><circle class="cls-4" cx="143.59" cy="238.81" r="2.66"/><circle class="cls-4" cx="330.71" cy="216.08" r="2.66"/><circle class="cls-4" cx="340.63" cy="228.65" r="2.66"/><circle class="cls-4" cx="325.15" cy="230.34" r="2.66"/><circle class="cls-4" cx="356.58" cy="226.72" r="2.66"/><circle class="cls-4" cx="370.85" cy="233.49" r="2.66"/><circle class="cls-4" cx="515.66" cy="218.26" r="2.66"/><circle class="cls-4" cx="495.11" cy="211.25" r="2.66"/><circle class="cls-4" cx="541.53" cy="222.37" r="2.66"/><circle class="cls-4" cx="501.64" cy="227.44" r="2.66"/><circle class="cls-4" cx="524.36" cy="235.18" r="2.66"/></svg>